<svg xmlns="http://www.w3.org/2000/svg" viewBox="0 0 80 80"><path fill="currentColor" d="M45.426 18.583c.394 0 .591-.247.69-.592 1.134-6.506 1.134-6.703 7.936-7.985.394-.05.64-.296.64-.69 0-.444-.246-.69-.64-.74-6.753-1.38-6.802-1.527-7.936-7.935C46.017.246 45.82 0 45.426 0c-.395 0-.641.246-.74.64-1.183 6.409-1.084 6.557-7.935 7.937-.395.049-.641.296-.641.74 0 .393.246.64.64.69 6.852 1.28 6.753 1.478 7.936 7.984.099.345.345.592.74.592Zm18.435 25.73c.64 0 1.084-.444 1.183-1.134 1.33-10.35 1.725-10.548 12.224-12.224.74-.148 1.183-.493 1.183-1.183 0-.64-.444-1.035-1.084-1.183-10.549-2.02-10.992-1.922-12.323-12.224-.099-.69-.543-1.134-1.183-1.134-.592 0-1.085.444-1.134 1.084-1.43 10.45-1.676 10.697-12.372 12.274-.592.099-1.035.542-1.035 1.183 0 .64.443 1.035 1.035 1.183C61.1 32.927 61.396 32.927 62.727 43.23c.05.64.542 1.084 1.134 1.084ZM34.927 80c13.9 0 24.941-6.9 30.314-18.632.591-1.282.493-2.416-.148-3.007-.592-.591-1.577-.64-2.711-.246-3.155 1.183-6.753 1.873-11.041 1.873-17.745 0-28.934-10.992-28.934-28.392 0-4.782.936-9.366 2.169-11.929.64-1.232.591-2.316.049-3.007-.641-.739-1.824-.838-3.253-.246C9.837 21.294 2 33.568 2 47.566 2 66.1 15.506 80 34.927 80Z"/></svg>