<svg xmlns="http://www.w3.org/2000/svg" viewBox="0 0 80 80"><path fill="currentColor" d="M42.74 2.88c0-1.558-1.276-2.88-2.834-2.88-1.559 0-2.881 1.322-2.881 2.88v7.935c0 1.558 1.322 2.833 2.88 2.833a2.842 2.842 0 0 0 2.834-2.833V2.88Zm15.725 14.546c-1.086 1.086-1.086 2.928 0 4.014 1.086 1.086 2.928 1.134 4.062 0l5.62-5.667c1.086-1.086 1.086-2.928 0-4.014a2.795 2.795 0 0 0-4.015 0l-5.667 5.667Zm-41.18 4.014c1.038 1.086 2.88 1.086 4.014 0 1.086-1.039 1.086-2.975 0-4.014l-5.62-5.667c-1.04-1.086-2.928-1.133-4.014 0-1.086 1.086-1.086 2.928 0 4.014l5.62 5.667Zm22.573 0c-10.106 0-18.512 8.406-18.512 18.56 0 10.154 8.406 18.56 18.512 18.56 10.154 0 18.56-8.407 18.56-18.56 0-10.154-8.406-18.56-18.56-18.56ZM76.93 42.88c1.559 0 2.881-1.322 2.881-2.88 0-1.558-1.322-2.88-2.88-2.88h-7.887c-1.559 0-2.881 1.322-2.881 2.88 0 1.558 1.322 2.88 2.88 2.88h7.887ZM2.88 37.12C1.323 37.12 0 38.441 0 40c0 1.558 1.322 2.88 2.88 2.88h7.888c1.558 0 2.88-1.322 2.88-2.88 0-1.558-1.322-2.88-2.88-2.88H2.88Zm59.6 21.487c-1.087-1.086-2.929-1.086-4.015 0-1.086 1.086-1.086 2.928 0 4.014l5.667 5.667c1.087 1.086 2.928 1.086 4.014-.047 1.087-1.086 1.087-2.928 0-4.014l-5.667-5.62Zm-50.862 5.62c-1.087 1.039-1.087 2.88 0 4.014 1.038 1.086 2.928 1.133 4.014 0l5.667-5.62c1.086-1.086 1.086-2.928 0-4.014-1.087-1.086-2.928-1.086-4.014 0l-5.668 5.62Zm31.121 4.958a2.842 2.842 0 0 0-2.833-2.833c-1.559 0-2.881 1.275-2.881 2.833v7.934c0 1.559 1.322 2.881 2.88 2.881 1.559 0 2.834-1.322 2.834-2.88v-7.935Z"/></svg>