<svg xmlns="http://www.w3.org/2000/svg" width="16" height="14" fill="currentColor"><path d="M14.362 3.354c.007.146.01.294.01.44 0 4.496-3.302 9.68-9.34 9.68A9.05 9.05 0 0 1 0 11.944c.86.108 1.731.04 2.565-.202a6.505 6.505 0 0 0 2.294-1.205 3.212 3.212 0 0 1-1.898-.672 3.404 3.404 0 0 1-1.168-1.69 3.24 3.24 0 0 0 1.483-.059 3.268 3.268 0 0 1-1.891-1.181A3.482 3.482 0 0 1 .643 4.78v-.043c.455.263.965.41 1.487.426A3.405 3.405 0 0 1 .753 3.101a3.509 3.509 0 0 1 .36-2.48 9.39 9.39 0 0 0 3.02 2.523A9.064 9.064 0 0 0 7.88 4.176a3.556 3.556 0 0 1 .165-2.077A3.41 3.41 0 0 1 8.757.996 3.276 3.276 0 0 1 9.822.259a3.181 3.181 0 0 1 2.561.02c.412.184.784.455 1.09.794.736-.15 1.44-.43 2.085-.825a3.396 3.396 0 0 1-1.443 1.881c.65-.08 1.286-.26 1.885-.535a6.766 6.766 0 0 1-1.638 1.76Z"/></svg>